<mxfile host="app.diagrams.net" modified="2023-12-17T06:30:41.376Z" agent="Mozilla/5.0 (Windows NT 10.0; Win64; x64) AppleWebKit/537.36 (KHTML, like Gecko) Chrome/120.0.0.0 Safari/537.36" etag="DTQmCHrXueM3wtGrqBy2" version="22.1.11" type="device">
  <diagram name="페이지-1" id="Xs5vEGbWz5TWcXkRtH75">
    <mxGraphModel dx="1615" dy="871" grid="1" gridSize="10" guides="1" tooltips="1" connect="1" arrows="1" fold="1" page="1" pageScale="1" pageWidth="827" pageHeight="1169" math="0" shadow="0">
      <root>
        <mxCell id="0" />
        <mxCell id="1" parent="0" />
        <mxCell id="Z7ffMeiRjzaTyrLhWQCD-75" style="edgeStyle=orthogonalEdgeStyle;rounded=0;orthogonalLoop=1;jettySize=auto;html=1;entryX=0;entryY=0.5;entryDx=0;entryDy=0;" edge="1" parent="1" source="Z7ffMeiRjzaTyrLhWQCD-2" target="Z7ffMeiRjzaTyrLhWQCD-3">
          <mxGeometry relative="1" as="geometry" />
        </mxCell>
        <mxCell id="Z7ffMeiRjzaTyrLhWQCD-76" style="edgeStyle=orthogonalEdgeStyle;rounded=0;orthogonalLoop=1;jettySize=auto;html=1;entryX=0;entryY=0.5;entryDx=0;entryDy=0;" edge="1" parent="1" source="Z7ffMeiRjzaTyrLhWQCD-2" target="Z7ffMeiRjzaTyrLhWQCD-6">
          <mxGeometry relative="1" as="geometry" />
        </mxCell>
        <mxCell id="Z7ffMeiRjzaTyrLhWQCD-77" style="edgeStyle=orthogonalEdgeStyle;rounded=0;orthogonalLoop=1;jettySize=auto;html=1;entryX=0;entryY=0.5;entryDx=0;entryDy=0;" edge="1" parent="1" source="Z7ffMeiRjzaTyrLhWQCD-2" target="Z7ffMeiRjzaTyrLhWQCD-4">
          <mxGeometry relative="1" as="geometry" />
        </mxCell>
        <mxCell id="Z7ffMeiRjzaTyrLhWQCD-78" style="edgeStyle=orthogonalEdgeStyle;rounded=0;orthogonalLoop=1;jettySize=auto;html=1;entryX=0;entryY=0.5;entryDx=0;entryDy=0;" edge="1" parent="1" source="Z7ffMeiRjzaTyrLhWQCD-2" target="Z7ffMeiRjzaTyrLhWQCD-7">
          <mxGeometry relative="1" as="geometry" />
        </mxCell>
        <mxCell id="Z7ffMeiRjzaTyrLhWQCD-79" style="edgeStyle=orthogonalEdgeStyle;rounded=0;orthogonalLoop=1;jettySize=auto;html=1;entryX=0;entryY=0.5;entryDx=0;entryDy=0;" edge="1" parent="1" source="Z7ffMeiRjzaTyrLhWQCD-2" target="Z7ffMeiRjzaTyrLhWQCD-8">
          <mxGeometry relative="1" as="geometry" />
        </mxCell>
        <mxCell id="Z7ffMeiRjzaTyrLhWQCD-2" value="5" style="rounded=1;whiteSpace=wrap;html=1;" vertex="1" parent="1">
          <mxGeometry x="90" width="80" height="40" as="geometry" />
        </mxCell>
        <mxCell id="Z7ffMeiRjzaTyrLhWQCD-114" style="edgeStyle=orthogonalEdgeStyle;rounded=0;orthogonalLoop=1;jettySize=auto;html=1;entryX=0;entryY=0.5;entryDx=0;entryDy=0;endArrow=none;endFill=0;dashed=1;dashPattern=1 4;" edge="1" parent="1" source="Z7ffMeiRjzaTyrLhWQCD-3" target="Z7ffMeiRjzaTyrLhWQCD-31">
          <mxGeometry relative="1" as="geometry" />
        </mxCell>
        <mxCell id="Z7ffMeiRjzaTyrLhWQCD-3" value="5" style="rounded=1;whiteSpace=wrap;html=1;" vertex="1" parent="1">
          <mxGeometry x="210" width="80" height="40" as="geometry" />
        </mxCell>
        <mxCell id="Z7ffMeiRjzaTyrLhWQCD-61" style="edgeStyle=orthogonalEdgeStyle;rounded=0;orthogonalLoop=1;jettySize=auto;html=1;entryX=0;entryY=0.5;entryDx=0;entryDy=0;endArrow=none;endFill=0;dashed=1;dashPattern=1 4;" edge="1" parent="1" source="Z7ffMeiRjzaTyrLhWQCD-4" target="Z7ffMeiRjzaTyrLhWQCD-33">
          <mxGeometry relative="1" as="geometry" />
        </mxCell>
        <mxCell id="Z7ffMeiRjzaTyrLhWQCD-4" value="3" style="rounded=1;whiteSpace=wrap;html=1;" vertex="1" parent="1">
          <mxGeometry x="210" y="120" width="80" height="40" as="geometry" />
        </mxCell>
        <mxCell id="Z7ffMeiRjzaTyrLhWQCD-5" value="6" style="ellipse;whiteSpace=wrap;html=1;aspect=fixed;fillColor=#dae8fc;strokeColor=#6c8ebf;" vertex="1" parent="1">
          <mxGeometry x="30" y="40" width="60" height="60" as="geometry" />
        </mxCell>
        <mxCell id="Z7ffMeiRjzaTyrLhWQCD-62" style="edgeStyle=orthogonalEdgeStyle;rounded=0;orthogonalLoop=1;jettySize=auto;html=1;entryX=0;entryY=0.5;entryDx=0;entryDy=0;endArrow=none;endFill=0;dashed=1;dashPattern=1 4;" edge="1" parent="1" source="Z7ffMeiRjzaTyrLhWQCD-6" target="Z7ffMeiRjzaTyrLhWQCD-32">
          <mxGeometry relative="1" as="geometry" />
        </mxCell>
        <mxCell id="Z7ffMeiRjzaTyrLhWQCD-6" value="4" style="rounded=1;whiteSpace=wrap;html=1;" vertex="1" parent="1">
          <mxGeometry x="210" y="60" width="80" height="40" as="geometry" />
        </mxCell>
        <mxCell id="Z7ffMeiRjzaTyrLhWQCD-60" style="edgeStyle=orthogonalEdgeStyle;rounded=0;orthogonalLoop=1;jettySize=auto;html=1;entryX=0;entryY=0.5;entryDx=0;entryDy=0;endArrow=none;endFill=0;dashed=1;dashPattern=1 4;" edge="1" parent="1" source="Z7ffMeiRjzaTyrLhWQCD-7" target="Z7ffMeiRjzaTyrLhWQCD-34">
          <mxGeometry relative="1" as="geometry" />
        </mxCell>
        <mxCell id="Z7ffMeiRjzaTyrLhWQCD-7" value="2" style="rounded=1;whiteSpace=wrap;html=1;" vertex="1" parent="1">
          <mxGeometry x="210" y="180" width="80" height="40" as="geometry" />
        </mxCell>
        <mxCell id="Z7ffMeiRjzaTyrLhWQCD-58" style="edgeStyle=orthogonalEdgeStyle;rounded=0;orthogonalLoop=1;jettySize=auto;html=1;entryX=0;entryY=0.5;entryDx=0;entryDy=0;endArrow=none;endFill=0;dashed=1;dashPattern=1 4;" edge="1" parent="1" source="Z7ffMeiRjzaTyrLhWQCD-8" target="Z7ffMeiRjzaTyrLhWQCD-35">
          <mxGeometry relative="1" as="geometry" />
        </mxCell>
        <mxCell id="Z7ffMeiRjzaTyrLhWQCD-8" value="1" style="rounded=1;whiteSpace=wrap;html=1;" vertex="1" parent="1">
          <mxGeometry x="210" y="240" width="80" height="40" as="geometry" />
        </mxCell>
        <mxCell id="Z7ffMeiRjzaTyrLhWQCD-71" style="edgeStyle=orthogonalEdgeStyle;rounded=0;orthogonalLoop=1;jettySize=auto;html=1;entryX=0;entryY=0.5;entryDx=0;entryDy=0;" edge="1" parent="1" source="Z7ffMeiRjzaTyrLhWQCD-9" target="Z7ffMeiRjzaTyrLhWQCD-10">
          <mxGeometry relative="1" as="geometry" />
        </mxCell>
        <mxCell id="Z7ffMeiRjzaTyrLhWQCD-72" style="edgeStyle=orthogonalEdgeStyle;rounded=0;orthogonalLoop=1;jettySize=auto;html=1;entryX=0;entryY=0.5;entryDx=0;entryDy=0;" edge="1" parent="1" source="Z7ffMeiRjzaTyrLhWQCD-9" target="Z7ffMeiRjzaTyrLhWQCD-12">
          <mxGeometry relative="1" as="geometry" />
        </mxCell>
        <mxCell id="Z7ffMeiRjzaTyrLhWQCD-73" style="edgeStyle=orthogonalEdgeStyle;rounded=0;orthogonalLoop=1;jettySize=auto;html=1;entryX=0;entryY=0.5;entryDx=0;entryDy=0;" edge="1" parent="1" source="Z7ffMeiRjzaTyrLhWQCD-9" target="Z7ffMeiRjzaTyrLhWQCD-11">
          <mxGeometry relative="1" as="geometry" />
        </mxCell>
        <mxCell id="Z7ffMeiRjzaTyrLhWQCD-74" style="edgeStyle=orthogonalEdgeStyle;rounded=0;orthogonalLoop=1;jettySize=auto;html=1;entryX=0;entryY=0.5;entryDx=0;entryDy=0;" edge="1" parent="1" source="Z7ffMeiRjzaTyrLhWQCD-9" target="Z7ffMeiRjzaTyrLhWQCD-13">
          <mxGeometry relative="1" as="geometry" />
        </mxCell>
        <mxCell id="Z7ffMeiRjzaTyrLhWQCD-9" value="4" style="rounded=1;whiteSpace=wrap;html=1;" vertex="1" parent="1">
          <mxGeometry x="90" y="300" width="80" height="40" as="geometry" />
        </mxCell>
        <mxCell id="Z7ffMeiRjzaTyrLhWQCD-57" style="edgeStyle=orthogonalEdgeStyle;rounded=0;orthogonalLoop=1;jettySize=auto;html=1;entryX=0;entryY=0.5;entryDx=0;entryDy=0;endArrow=none;endFill=0;dashed=1;dashPattern=1 4;" edge="1" parent="1" source="Z7ffMeiRjzaTyrLhWQCD-10" target="Z7ffMeiRjzaTyrLhWQCD-37">
          <mxGeometry relative="1" as="geometry" />
        </mxCell>
        <mxCell id="Z7ffMeiRjzaTyrLhWQCD-10" value="4" style="rounded=1;whiteSpace=wrap;html=1;" vertex="1" parent="1">
          <mxGeometry x="210" y="300" width="80" height="40" as="geometry" />
        </mxCell>
        <mxCell id="Z7ffMeiRjzaTyrLhWQCD-55" style="edgeStyle=orthogonalEdgeStyle;rounded=0;orthogonalLoop=1;jettySize=auto;html=1;entryX=0;entryY=0.5;entryDx=0;entryDy=0;endArrow=none;endFill=0;dashed=1;dashPattern=1 4;" edge="1" parent="1" source="Z7ffMeiRjzaTyrLhWQCD-11" target="Z7ffMeiRjzaTyrLhWQCD-36">
          <mxGeometry relative="1" as="geometry" />
        </mxCell>
        <mxCell id="Z7ffMeiRjzaTyrLhWQCD-11" value="2" style="rounded=1;whiteSpace=wrap;html=1;" vertex="1" parent="1">
          <mxGeometry x="210" y="420" width="80" height="40" as="geometry" />
        </mxCell>
        <mxCell id="Z7ffMeiRjzaTyrLhWQCD-56" style="edgeStyle=orthogonalEdgeStyle;rounded=0;orthogonalLoop=1;jettySize=auto;html=1;endArrow=none;endFill=0;dashed=1;dashPattern=1 4;" edge="1" parent="1" source="Z7ffMeiRjzaTyrLhWQCD-12" target="Z7ffMeiRjzaTyrLhWQCD-38">
          <mxGeometry relative="1" as="geometry" />
        </mxCell>
        <mxCell id="Z7ffMeiRjzaTyrLhWQCD-12" value="3" style="rounded=1;whiteSpace=wrap;html=1;" vertex="1" parent="1">
          <mxGeometry x="210" y="360" width="80" height="40" as="geometry" />
        </mxCell>
        <mxCell id="Z7ffMeiRjzaTyrLhWQCD-54" style="edgeStyle=orthogonalEdgeStyle;rounded=0;orthogonalLoop=1;jettySize=auto;html=1;entryX=0;entryY=0.5;entryDx=0;entryDy=0;" edge="1" parent="1" source="Z7ffMeiRjzaTyrLhWQCD-13" target="Z7ffMeiRjzaTyrLhWQCD-41">
          <mxGeometry relative="1" as="geometry" />
        </mxCell>
        <mxCell id="Z7ffMeiRjzaTyrLhWQCD-13" value="1" style="rounded=1;whiteSpace=wrap;html=1;" vertex="1" parent="1">
          <mxGeometry x="210" y="480" width="80" height="40" as="geometry" />
        </mxCell>
        <mxCell id="Z7ffMeiRjzaTyrLhWQCD-68" style="edgeStyle=orthogonalEdgeStyle;rounded=0;orthogonalLoop=1;jettySize=auto;html=1;entryX=0;entryY=0.5;entryDx=0;entryDy=0;" edge="1" parent="1" source="Z7ffMeiRjzaTyrLhWQCD-15" target="Z7ffMeiRjzaTyrLhWQCD-16">
          <mxGeometry relative="1" as="geometry" />
        </mxCell>
        <mxCell id="Z7ffMeiRjzaTyrLhWQCD-69" style="edgeStyle=orthogonalEdgeStyle;rounded=0;orthogonalLoop=1;jettySize=auto;html=1;entryX=0;entryY=0.5;entryDx=0;entryDy=0;" edge="1" parent="1" source="Z7ffMeiRjzaTyrLhWQCD-15" target="Z7ffMeiRjzaTyrLhWQCD-18">
          <mxGeometry relative="1" as="geometry" />
        </mxCell>
        <mxCell id="Z7ffMeiRjzaTyrLhWQCD-70" style="edgeStyle=orthogonalEdgeStyle;rounded=0;orthogonalLoop=1;jettySize=auto;html=1;entryX=0;entryY=0.5;entryDx=0;entryDy=0;" edge="1" parent="1" source="Z7ffMeiRjzaTyrLhWQCD-15" target="Z7ffMeiRjzaTyrLhWQCD-17">
          <mxGeometry relative="1" as="geometry" />
        </mxCell>
        <mxCell id="Z7ffMeiRjzaTyrLhWQCD-15" value="3" style="rounded=1;whiteSpace=wrap;html=1;" vertex="1" parent="1">
          <mxGeometry x="90" y="540" width="80" height="40" as="geometry" />
        </mxCell>
        <mxCell id="Z7ffMeiRjzaTyrLhWQCD-53" style="edgeStyle=orthogonalEdgeStyle;rounded=0;orthogonalLoop=1;jettySize=auto;html=1;entryX=0;entryY=0.5;entryDx=0;entryDy=0;endArrow=none;endFill=0;dashed=1;dashPattern=1 4;" edge="1" parent="1" source="Z7ffMeiRjzaTyrLhWQCD-16" target="Z7ffMeiRjzaTyrLhWQCD-44">
          <mxGeometry relative="1" as="geometry" />
        </mxCell>
        <mxCell id="Z7ffMeiRjzaTyrLhWQCD-16" value="3" style="rounded=1;whiteSpace=wrap;html=1;" vertex="1" parent="1">
          <mxGeometry x="210" y="540" width="80" height="40" as="geometry" />
        </mxCell>
        <mxCell id="Z7ffMeiRjzaTyrLhWQCD-65" style="edgeStyle=orthogonalEdgeStyle;rounded=0;orthogonalLoop=1;jettySize=auto;html=1;entryX=0;entryY=0.5;entryDx=0;entryDy=0;" edge="1" parent="1" source="Z7ffMeiRjzaTyrLhWQCD-17" target="Z7ffMeiRjzaTyrLhWQCD-63">
          <mxGeometry relative="1" as="geometry" />
        </mxCell>
        <mxCell id="Z7ffMeiRjzaTyrLhWQCD-17" value="1" style="rounded=1;whiteSpace=wrap;html=1;" vertex="1" parent="1">
          <mxGeometry x="210" y="660" width="80" height="40" as="geometry" />
        </mxCell>
        <mxCell id="Z7ffMeiRjzaTyrLhWQCD-51" style="edgeStyle=orthogonalEdgeStyle;rounded=0;orthogonalLoop=1;jettySize=auto;html=1;entryX=0;entryY=0.5;entryDx=0;entryDy=0;" edge="1" parent="1" source="Z7ffMeiRjzaTyrLhWQCD-18" target="Z7ffMeiRjzaTyrLhWQCD-45">
          <mxGeometry relative="1" as="geometry" />
        </mxCell>
        <mxCell id="Z7ffMeiRjzaTyrLhWQCD-52" style="edgeStyle=orthogonalEdgeStyle;rounded=0;orthogonalLoop=1;jettySize=auto;html=1;entryX=0;entryY=0.5;entryDx=0;entryDy=0;" edge="1" parent="1" source="Z7ffMeiRjzaTyrLhWQCD-18" target="Z7ffMeiRjzaTyrLhWQCD-46">
          <mxGeometry relative="1" as="geometry" />
        </mxCell>
        <mxCell id="Z7ffMeiRjzaTyrLhWQCD-18" value="2" style="rounded=1;whiteSpace=wrap;html=1;" vertex="1" parent="1">
          <mxGeometry x="210" y="600" width="80" height="40" as="geometry" />
        </mxCell>
        <mxCell id="Z7ffMeiRjzaTyrLhWQCD-80" style="edgeStyle=orthogonalEdgeStyle;rounded=0;orthogonalLoop=1;jettySize=auto;html=1;entryX=0;entryY=0.5;entryDx=0;entryDy=0;" edge="1" parent="1" source="Z7ffMeiRjzaTyrLhWQCD-20" target="Z7ffMeiRjzaTyrLhWQCD-21">
          <mxGeometry relative="1" as="geometry" />
        </mxCell>
        <mxCell id="Z7ffMeiRjzaTyrLhWQCD-81" style="edgeStyle=orthogonalEdgeStyle;rounded=0;orthogonalLoop=1;jettySize=auto;html=1;entryX=0;entryY=0.5;entryDx=0;entryDy=0;" edge="1" parent="1" source="Z7ffMeiRjzaTyrLhWQCD-20" target="Z7ffMeiRjzaTyrLhWQCD-23">
          <mxGeometry relative="1" as="geometry" />
        </mxCell>
        <mxCell id="Z7ffMeiRjzaTyrLhWQCD-20" value="2" style="rounded=1;whiteSpace=wrap;html=1;" vertex="1" parent="1">
          <mxGeometry x="90" y="720" width="80" height="40" as="geometry" />
        </mxCell>
        <mxCell id="Z7ffMeiRjzaTyrLhWQCD-93" style="edgeStyle=orthogonalEdgeStyle;rounded=0;orthogonalLoop=1;jettySize=auto;html=1;entryX=0;entryY=0.5;entryDx=0;entryDy=0;" edge="1" parent="1" source="Z7ffMeiRjzaTyrLhWQCD-21" target="Z7ffMeiRjzaTyrLhWQCD-85">
          <mxGeometry relative="1" as="geometry" />
        </mxCell>
        <mxCell id="Z7ffMeiRjzaTyrLhWQCD-94" style="edgeStyle=orthogonalEdgeStyle;rounded=0;orthogonalLoop=1;jettySize=auto;html=1;entryX=0;entryY=0.5;entryDx=0;entryDy=0;" edge="1" parent="1" source="Z7ffMeiRjzaTyrLhWQCD-21" target="Z7ffMeiRjzaTyrLhWQCD-86">
          <mxGeometry relative="1" as="geometry" />
        </mxCell>
        <mxCell id="Z7ffMeiRjzaTyrLhWQCD-21" value="2" style="rounded=1;whiteSpace=wrap;html=1;" vertex="1" parent="1">
          <mxGeometry x="210" y="720" width="80" height="40" as="geometry" />
        </mxCell>
        <mxCell id="Z7ffMeiRjzaTyrLhWQCD-98" style="edgeStyle=orthogonalEdgeStyle;rounded=0;orthogonalLoop=1;jettySize=auto;html=1;entryX=0;entryY=0.5;entryDx=0;entryDy=0;" edge="1" parent="1" source="Z7ffMeiRjzaTyrLhWQCD-23" target="Z7ffMeiRjzaTyrLhWQCD-96">
          <mxGeometry relative="1" as="geometry" />
        </mxCell>
        <mxCell id="Z7ffMeiRjzaTyrLhWQCD-23" value="1" style="rounded=1;whiteSpace=wrap;html=1;" vertex="1" parent="1">
          <mxGeometry x="210" y="780" width="80" height="40" as="geometry" />
        </mxCell>
        <mxCell id="Z7ffMeiRjzaTyrLhWQCD-82" style="edgeStyle=orthogonalEdgeStyle;rounded=0;orthogonalLoop=1;jettySize=auto;html=1;entryX=0;entryY=0.5;entryDx=0;entryDy=0;" edge="1" parent="1" source="Z7ffMeiRjzaTyrLhWQCD-25" target="Z7ffMeiRjzaTyrLhWQCD-26">
          <mxGeometry relative="1" as="geometry" />
        </mxCell>
        <mxCell id="Z7ffMeiRjzaTyrLhWQCD-25" value="1" style="rounded=1;whiteSpace=wrap;html=1;" vertex="1" parent="1">
          <mxGeometry x="90" y="840" width="80" height="40" as="geometry" />
        </mxCell>
        <mxCell id="Z7ffMeiRjzaTyrLhWQCD-109" style="edgeStyle=orthogonalEdgeStyle;rounded=0;orthogonalLoop=1;jettySize=auto;html=1;entryX=0;entryY=0.5;entryDx=0;entryDy=0;" edge="1" parent="1" source="Z7ffMeiRjzaTyrLhWQCD-26" target="Z7ffMeiRjzaTyrLhWQCD-103">
          <mxGeometry relative="1" as="geometry" />
        </mxCell>
        <mxCell id="Z7ffMeiRjzaTyrLhWQCD-26" value="1" style="rounded=1;whiteSpace=wrap;html=1;" vertex="1" parent="1">
          <mxGeometry x="210" y="840" width="80" height="40" as="geometry" />
        </mxCell>
        <mxCell id="Z7ffMeiRjzaTyrLhWQCD-31" value="10: Exceed" style="ellipse;whiteSpace=wrap;html=1;fillColor=#f8cecc;strokeColor=#b85450;" vertex="1" parent="1">
          <mxGeometry x="319" width="71" height="40" as="geometry" />
        </mxCell>
        <mxCell id="Z7ffMeiRjzaTyrLhWQCD-32" value="9: Exceed" style="ellipse;whiteSpace=wrap;html=1;fillColor=#f8cecc;strokeColor=#b85450;" vertex="1" parent="1">
          <mxGeometry x="319" y="60" width="71" height="40" as="geometry" />
        </mxCell>
        <mxCell id="Z7ffMeiRjzaTyrLhWQCD-33" value="8: Exceed" style="ellipse;whiteSpace=wrap;html=1;fillColor=#f8cecc;strokeColor=#b85450;" vertex="1" parent="1">
          <mxGeometry x="318" y="120" width="71" height="40" as="geometry" />
        </mxCell>
        <mxCell id="Z7ffMeiRjzaTyrLhWQCD-34" value="7: Exceed" style="ellipse;whiteSpace=wrap;html=1;fillColor=#f8cecc;strokeColor=#b85450;" vertex="1" parent="1">
          <mxGeometry x="319" y="180" width="71" height="40" as="geometry" />
        </mxCell>
        <mxCell id="Z7ffMeiRjzaTyrLhWQCD-35" value="6: OK" style="shape=hexagon;perimeter=hexagonPerimeter2;whiteSpace=wrap;html=1;fixedSize=1;size=12;fillColor=#d5e8d4;strokeColor=#82b366;" vertex="1" parent="1">
          <mxGeometry x="318" y="240" width="72" height="40" as="geometry" />
        </mxCell>
        <mxCell id="Z7ffMeiRjzaTyrLhWQCD-36" value="6: OK" style="shape=hexagon;perimeter=hexagonPerimeter2;whiteSpace=wrap;html=1;fixedSize=1;size=12;fillColor=#d5e8d4;strokeColor=#82b366;" vertex="1" parent="1">
          <mxGeometry x="318" y="420" width="72" height="40" as="geometry" />
        </mxCell>
        <mxCell id="Z7ffMeiRjzaTyrLhWQCD-37" value="8: Exceed" style="ellipse;whiteSpace=wrap;html=1;fillColor=#f8cecc;strokeColor=#b85450;" vertex="1" parent="1">
          <mxGeometry x="318" y="300" width="71" height="40" as="geometry" />
        </mxCell>
        <mxCell id="Z7ffMeiRjzaTyrLhWQCD-38" value="7: Exceed" style="ellipse;whiteSpace=wrap;html=1;fillColor=#f8cecc;strokeColor=#b85450;" vertex="1" parent="1">
          <mxGeometry x="318" y="360" width="71" height="40" as="geometry" />
        </mxCell>
        <mxCell id="Z7ffMeiRjzaTyrLhWQCD-115" style="edgeStyle=orthogonalEdgeStyle;rounded=0;orthogonalLoop=1;jettySize=auto;html=1;entryX=0;entryY=0.5;entryDx=0;entryDy=0;endArrow=none;endFill=0;dashed=1;dashPattern=1 4;" edge="1" parent="1" source="Z7ffMeiRjzaTyrLhWQCD-41" target="Z7ffMeiRjzaTyrLhWQCD-43">
          <mxGeometry relative="1" as="geometry" />
        </mxCell>
        <mxCell id="Z7ffMeiRjzaTyrLhWQCD-41" value="1" style="rounded=1;whiteSpace=wrap;html=1;" vertex="1" parent="1">
          <mxGeometry x="319" y="480" width="80" height="40" as="geometry" />
        </mxCell>
        <mxCell id="Z7ffMeiRjzaTyrLhWQCD-43" value="6: OK" style="shape=hexagon;perimeter=hexagonPerimeter2;whiteSpace=wrap;html=1;fixedSize=1;size=12;fillColor=#d5e8d4;strokeColor=#82b366;" vertex="1" parent="1">
          <mxGeometry x="440" y="480" width="72" height="40" as="geometry" />
        </mxCell>
        <mxCell id="Z7ffMeiRjzaTyrLhWQCD-44" value="6: OK" style="shape=hexagon;perimeter=hexagonPerimeter2;whiteSpace=wrap;html=1;fixedSize=1;size=12;fillColor=#d5e8d4;strokeColor=#82b366;" vertex="1" parent="1">
          <mxGeometry x="319" y="540" width="72" height="40" as="geometry" />
        </mxCell>
        <mxCell id="Z7ffMeiRjzaTyrLhWQCD-49" style="edgeStyle=orthogonalEdgeStyle;rounded=0;orthogonalLoop=1;jettySize=auto;html=1;entryX=0;entryY=0.5;entryDx=0;entryDy=0;endArrow=none;endFill=0;dashed=1;dashPattern=1 4;" edge="1" parent="1" source="Z7ffMeiRjzaTyrLhWQCD-45" target="Z7ffMeiRjzaTyrLhWQCD-47">
          <mxGeometry relative="1" as="geometry" />
        </mxCell>
        <mxCell id="Z7ffMeiRjzaTyrLhWQCD-45" value="2" style="rounded=1;whiteSpace=wrap;html=1;" vertex="1" parent="1">
          <mxGeometry x="328" y="595" width="51" height="20" as="geometry" />
        </mxCell>
        <mxCell id="Z7ffMeiRjzaTyrLhWQCD-50" style="edgeStyle=orthogonalEdgeStyle;rounded=0;orthogonalLoop=1;jettySize=auto;html=1;entryX=0;entryY=0.5;entryDx=0;entryDy=0;endArrow=none;endFill=0;dashed=1;dashPattern=1 4;" edge="1" parent="1" source="Z7ffMeiRjzaTyrLhWQCD-46" target="Z7ffMeiRjzaTyrLhWQCD-48">
          <mxGeometry relative="1" as="geometry" />
        </mxCell>
        <mxCell id="Z7ffMeiRjzaTyrLhWQCD-46" value="1" style="rounded=1;whiteSpace=wrap;html=1;" vertex="1" parent="1">
          <mxGeometry x="328" y="625" width="51" height="20" as="geometry" />
        </mxCell>
        <mxCell id="Z7ffMeiRjzaTyrLhWQCD-47" value="7: Exceed" style="ellipse;whiteSpace=wrap;html=1;fillColor=#f8cecc;strokeColor=#b85450;" vertex="1" parent="1">
          <mxGeometry x="421" y="580" width="71" height="40" as="geometry" />
        </mxCell>
        <mxCell id="Z7ffMeiRjzaTyrLhWQCD-48" value="6: OK" style="shape=hexagon;perimeter=hexagonPerimeter2;whiteSpace=wrap;html=1;fixedSize=1;size=12;fillColor=#d5e8d4;strokeColor=#82b366;" vertex="1" parent="1">
          <mxGeometry x="419" y="630" width="72" height="40" as="geometry" />
        </mxCell>
        <mxCell id="Z7ffMeiRjzaTyrLhWQCD-66" style="edgeStyle=orthogonalEdgeStyle;rounded=0;orthogonalLoop=1;jettySize=auto;html=1;entryX=0;entryY=0.5;entryDx=0;entryDy=0;" edge="1" parent="1" source="Z7ffMeiRjzaTyrLhWQCD-63" target="Z7ffMeiRjzaTyrLhWQCD-64">
          <mxGeometry relative="1" as="geometry" />
        </mxCell>
        <mxCell id="Z7ffMeiRjzaTyrLhWQCD-63" value="1" style="rounded=1;whiteSpace=wrap;html=1;" vertex="1" parent="1">
          <mxGeometry x="328" y="680" width="51" height="20" as="geometry" />
        </mxCell>
        <mxCell id="Z7ffMeiRjzaTyrLhWQCD-84" style="edgeStyle=orthogonalEdgeStyle;rounded=0;orthogonalLoop=1;jettySize=auto;html=1;entryX=0;entryY=0.5;entryDx=0;entryDy=0;endArrow=none;endFill=0;dashed=1;dashPattern=1 4;" edge="1" parent="1" source="Z7ffMeiRjzaTyrLhWQCD-64" target="Z7ffMeiRjzaTyrLhWQCD-83">
          <mxGeometry relative="1" as="geometry" />
        </mxCell>
        <mxCell id="Z7ffMeiRjzaTyrLhWQCD-64" value="1" style="rounded=1;whiteSpace=wrap;html=1;" vertex="1" parent="1">
          <mxGeometry x="410" y="680" width="51" height="20" as="geometry" />
        </mxCell>
        <mxCell id="Z7ffMeiRjzaTyrLhWQCD-83" value="6: OK" style="shape=hexagon;perimeter=hexagonPerimeter2;whiteSpace=wrap;html=1;fixedSize=1;size=12;fillColor=#d5e8d4;strokeColor=#82b366;" vertex="1" parent="1">
          <mxGeometry x="491" y="670" width="72" height="40" as="geometry" />
        </mxCell>
        <mxCell id="Z7ffMeiRjzaTyrLhWQCD-90" style="edgeStyle=orthogonalEdgeStyle;rounded=0;orthogonalLoop=1;jettySize=auto;html=1;entryX=0;entryY=0.5;entryDx=0;entryDy=0;endArrow=none;endFill=0;dashed=1;dashPattern=1 4;" edge="1" parent="1" source="Z7ffMeiRjzaTyrLhWQCD-85" target="Z7ffMeiRjzaTyrLhWQCD-88">
          <mxGeometry relative="1" as="geometry" />
        </mxCell>
        <mxCell id="Z7ffMeiRjzaTyrLhWQCD-85" value="2" style="rounded=1;whiteSpace=wrap;html=1;" vertex="1" parent="1">
          <mxGeometry x="339" y="715" width="51" height="20" as="geometry" />
        </mxCell>
        <mxCell id="Z7ffMeiRjzaTyrLhWQCD-91" style="edgeStyle=orthogonalEdgeStyle;rounded=0;orthogonalLoop=1;jettySize=auto;html=1;entryX=0;entryY=0.5;entryDx=0;entryDy=0;" edge="1" parent="1" source="Z7ffMeiRjzaTyrLhWQCD-86" target="Z7ffMeiRjzaTyrLhWQCD-87">
          <mxGeometry relative="1" as="geometry" />
        </mxCell>
        <mxCell id="Z7ffMeiRjzaTyrLhWQCD-86" value="1" style="rounded=1;whiteSpace=wrap;html=1;" vertex="1" parent="1">
          <mxGeometry x="339" y="745" width="51" height="20" as="geometry" />
        </mxCell>
        <mxCell id="Z7ffMeiRjzaTyrLhWQCD-92" style="edgeStyle=orthogonalEdgeStyle;rounded=0;orthogonalLoop=1;jettySize=auto;html=1;entryX=0;entryY=0.5;entryDx=0;entryDy=0;endArrow=none;endFill=0;dashed=1;dashPattern=1 4;" edge="1" parent="1" source="Z7ffMeiRjzaTyrLhWQCD-87" target="Z7ffMeiRjzaTyrLhWQCD-89">
          <mxGeometry relative="1" as="geometry" />
        </mxCell>
        <mxCell id="Z7ffMeiRjzaTyrLhWQCD-87" value="1" style="rounded=1;whiteSpace=wrap;html=1;" vertex="1" parent="1">
          <mxGeometry x="419" y="745" width="51" height="20" as="geometry" />
        </mxCell>
        <mxCell id="Z7ffMeiRjzaTyrLhWQCD-88" value="6: OK" style="shape=hexagon;perimeter=hexagonPerimeter2;whiteSpace=wrap;html=1;fixedSize=1;size=12;fillColor=#d5e8d4;strokeColor=#82b366;" vertex="1" parent="1">
          <mxGeometry x="425.5" y="712.5" width="60" height="25" as="geometry" />
        </mxCell>
        <mxCell id="Z7ffMeiRjzaTyrLhWQCD-89" value="6: OK" style="shape=hexagon;perimeter=hexagonPerimeter2;whiteSpace=wrap;html=1;fixedSize=1;size=12;fillColor=#d5e8d4;strokeColor=#82b366;" vertex="1" parent="1">
          <mxGeometry x="490" y="742.5" width="60" height="25" as="geometry" />
        </mxCell>
        <mxCell id="Z7ffMeiRjzaTyrLhWQCD-95" style="edgeStyle=orthogonalEdgeStyle;rounded=0;orthogonalLoop=1;jettySize=auto;html=1;entryX=0;entryY=0.5;entryDx=0;entryDy=0;" edge="1" parent="1" source="Z7ffMeiRjzaTyrLhWQCD-96" target="Z7ffMeiRjzaTyrLhWQCD-97">
          <mxGeometry relative="1" as="geometry" />
        </mxCell>
        <mxCell id="Z7ffMeiRjzaTyrLhWQCD-96" value="1" style="rounded=1;whiteSpace=wrap;html=1;" vertex="1" parent="1">
          <mxGeometry x="319" y="790" width="51" height="20" as="geometry" />
        </mxCell>
        <mxCell id="Z7ffMeiRjzaTyrLhWQCD-100" style="edgeStyle=orthogonalEdgeStyle;rounded=0;orthogonalLoop=1;jettySize=auto;html=1;entryX=0;entryY=0.5;entryDx=0;entryDy=0;" edge="1" parent="1" source="Z7ffMeiRjzaTyrLhWQCD-97" target="Z7ffMeiRjzaTyrLhWQCD-99">
          <mxGeometry relative="1" as="geometry" />
        </mxCell>
        <mxCell id="Z7ffMeiRjzaTyrLhWQCD-97" value="1" style="rounded=1;whiteSpace=wrap;html=1;" vertex="1" parent="1">
          <mxGeometry x="399" y="790" width="51" height="20" as="geometry" />
        </mxCell>
        <mxCell id="Z7ffMeiRjzaTyrLhWQCD-102" style="edgeStyle=orthogonalEdgeStyle;rounded=0;orthogonalLoop=1;jettySize=auto;html=1;entryX=0;entryY=0.5;entryDx=0;entryDy=0;endArrow=none;endFill=0;dashed=1;dashPattern=1 4;" edge="1" parent="1" source="Z7ffMeiRjzaTyrLhWQCD-99" target="Z7ffMeiRjzaTyrLhWQCD-101">
          <mxGeometry relative="1" as="geometry" />
        </mxCell>
        <mxCell id="Z7ffMeiRjzaTyrLhWQCD-99" value="1" style="rounded=1;whiteSpace=wrap;html=1;" vertex="1" parent="1">
          <mxGeometry x="479" y="790" width="51" height="20" as="geometry" />
        </mxCell>
        <mxCell id="Z7ffMeiRjzaTyrLhWQCD-101" value="6: OK" style="shape=hexagon;perimeter=hexagonPerimeter2;whiteSpace=wrap;html=1;fixedSize=1;size=12;fillColor=#d5e8d4;strokeColor=#82b366;" vertex="1" parent="1">
          <mxGeometry x="550" y="787.5" width="60" height="25" as="geometry" />
        </mxCell>
        <mxCell id="Z7ffMeiRjzaTyrLhWQCD-110" style="edgeStyle=orthogonalEdgeStyle;rounded=0;orthogonalLoop=1;jettySize=auto;html=1;entryX=0;entryY=0.5;entryDx=0;entryDy=0;" edge="1" parent="1" source="Z7ffMeiRjzaTyrLhWQCD-103" target="Z7ffMeiRjzaTyrLhWQCD-104">
          <mxGeometry relative="1" as="geometry" />
        </mxCell>
        <mxCell id="Z7ffMeiRjzaTyrLhWQCD-103" value="1" style="rounded=1;whiteSpace=wrap;html=1;" vertex="1" parent="1">
          <mxGeometry x="311" y="840" width="80" height="40" as="geometry" />
        </mxCell>
        <mxCell id="Z7ffMeiRjzaTyrLhWQCD-111" style="edgeStyle=orthogonalEdgeStyle;rounded=0;orthogonalLoop=1;jettySize=auto;html=1;entryX=0;entryY=0.5;entryDx=0;entryDy=0;" edge="1" parent="1" source="Z7ffMeiRjzaTyrLhWQCD-104" target="Z7ffMeiRjzaTyrLhWQCD-105">
          <mxGeometry relative="1" as="geometry" />
        </mxCell>
        <mxCell id="Z7ffMeiRjzaTyrLhWQCD-104" value="1" style="rounded=1;whiteSpace=wrap;html=1;" vertex="1" parent="1">
          <mxGeometry x="416" y="840" width="80" height="40" as="geometry" />
        </mxCell>
        <mxCell id="Z7ffMeiRjzaTyrLhWQCD-112" style="edgeStyle=orthogonalEdgeStyle;rounded=0;orthogonalLoop=1;jettySize=auto;html=1;entryX=0;entryY=0.5;entryDx=0;entryDy=0;" edge="1" parent="1" source="Z7ffMeiRjzaTyrLhWQCD-105" target="Z7ffMeiRjzaTyrLhWQCD-106">
          <mxGeometry relative="1" as="geometry" />
        </mxCell>
        <mxCell id="Z7ffMeiRjzaTyrLhWQCD-105" value="1" style="rounded=1;whiteSpace=wrap;html=1;" vertex="1" parent="1">
          <mxGeometry x="510" y="840" width="80" height="40" as="geometry" />
        </mxCell>
        <mxCell id="Z7ffMeiRjzaTyrLhWQCD-113" style="edgeStyle=orthogonalEdgeStyle;rounded=0;orthogonalLoop=1;jettySize=auto;html=1;entryX=0;entryY=0.5;entryDx=0;entryDy=0;endArrow=none;endFill=0;dashed=1;dashPattern=1 4;" edge="1" parent="1" source="Z7ffMeiRjzaTyrLhWQCD-106" target="Z7ffMeiRjzaTyrLhWQCD-107">
          <mxGeometry relative="1" as="geometry" />
        </mxCell>
        <mxCell id="Z7ffMeiRjzaTyrLhWQCD-106" value="1" style="rounded=1;whiteSpace=wrap;html=1;" vertex="1" parent="1">
          <mxGeometry x="610" y="840" width="80" height="40" as="geometry" />
        </mxCell>
        <mxCell id="Z7ffMeiRjzaTyrLhWQCD-107" value="6: OK" style="shape=hexagon;perimeter=hexagonPerimeter2;whiteSpace=wrap;html=1;fixedSize=1;size=12;fillColor=#d5e8d4;strokeColor=#82b366;" vertex="1" parent="1">
          <mxGeometry x="720" y="840" width="72" height="40" as="geometry" />
        </mxCell>
      </root>
    </mxGraphModel>
  </diagram>
</mxfile>
